<svg xmlns="http://www.w3.org/2000/svg" viewBox="0 0 52 52">
<rect width="52" height="52" rx="12" fill="#0d1b15"/>
<path d="M26 14c-4.5 0-7 2.6-9.4 2.6-2.6 0-4.6-1.8-6.6-1.8-2.6 0-3.8 2.4-3.8 6 0 7.6 4 17.4 7.4 17.4 2.6 0 3-4.4 5.6-4.4s3 4.4 5.6 4.4c2.6 0 3-4.4 5.6-4.4s3 4.4 5.6 4.4c3.4 0 7.4-9.8 7.4-17.4 0-3.6-1.2-6-3.8-6-2 0-4 1.8-6.6 1.8s-4.9-2.6-9.4-2.6z" stroke="#d1fc71" stroke-width="2.6" stroke-linejoin="round" fill="none"/>
<path d="M26 14c0-4 1.6-7 5-8.4-1 3.6-1 6.6.4 8.8" stroke="#d1fc71" stroke-width="2.6" stroke-linecap="round" stroke-linejoin="round" fill="none"/>
</svg>
